<?xml version="1.0" encoding="utf-8"?>
<!-- Generator: Adobe Illustrator 21.0.0, SVG Export Plug-In . SVG Version: 6.00 Build 0)  -->
<svg version="1.1" id="Capa_1" xmlns="http://www.w3.org/2000/svg" xmlns:xlink="http://www.w3.org/1999/xlink" x="0px" y="0px"
	 viewBox="0 0 750.3 111.7" style="enable-background:new 0 0 750.3 111.7;" xml:space="preserve">
<style type="text/css">
	.st0{fill:#9E9E9E;}
	.st1{fill:#1A237E;}
	.st2{fill:#1E88E5;}
</style>
<g>
	<path class="st0" d="M680.6,64.5V56h-25.3h0c-4.7,0-8.4,3.8-8.4,8.4v0v25.3v6.2c0,1.3,1,2.3,2.3,2.3h6.2h25.3v-8.4h-25.3V66
		c0-0.9,0.7-1.5,1.5-1.5H680.6z"/>
	<g>
		<path class="st0" d="M161.2,81.4V13.9h-14v70.2v0c0,7.8,6.3,14,14,14h0h42.1v-14h-39.4C162.4,84.1,161.2,82.9,161.2,81.4z"/>
		<path class="st0" d="M256,28h-42.1v14h39.3c1.5,0,2.8,1.2,2.8,2.8V56h-28.1h0c-7.8,0-14,6.3-14,14v0v14v10.5c0,2,1.6,3.5,3.5,3.5
			h10.5H256h10.5c1.9,0,3.5-1.6,3.5-3.5V84.1v-14V56V42v0C270,34.2,263.8,28,256,28L256,28z M256,84.1h-24.6c-1.9,0-3.5-1.5-3.5-3.5
			v-7.9c0-1.5,1.2-2.6,2.6-2.6H256V84.1z"/>
		<path class="st0" d="M386,28h-42.1v14h39.3c1.5,0,2.8,1.2,2.8,2.8V56H358h0c-7.8,0-14,6.3-14,14v0v14v10.5c0,2,1.6,3.5,3.5,3.5
			H358H386h10.5c1.9,0,3.5-1.6,3.5-3.5V84.1v-14V56V42v0C400.1,34.2,393.8,28,386,28L386,28z M386,84.1h-24.6
			c-1.9,0-3.5-1.5-3.5-3.5v-7.9c0-1.5,1.2-2.6,2.6-2.6H386V84.1z"/>
		<path class="st0" d="M562.4,42V28h-42.1l0,0c-7.8,0-14,6.3-14,14v0v14v14v14v10.6c0,1.9,1.6,3.5,3.5,3.5h10.6h42.1v-14h-42.1v-14
			h42.1V56h-42.1V44.7c0-1.5,1.2-2.7,2.7-2.7H562.4z"/>
		<path class="st0" d="M478.1,28h-17.9h-14h-17.9h-10.5c-1.9,0-3.5,1.6-3.5,3.5V42v56.2h14V42h17.9v56.2h14V42h14.4
			c1.9,0,3.5,1.6,3.5,3.5v52.6h14V42v0C492.1,34.2,485.8,28,478.1,28L478.1,28z"/>
		<path class="st0" d="M615.1,6.7v21.2H587l0,0c-7.8,0-14,6.3-14,14v0v42.2v0c0,7.8,6.3,14,14,14l0,0h28.1h10.6
			c1.9,0,3.5-1.6,3.5-3.5V84.1V48.8v-14V6.7H615.1z M615.1,84.1h-25.3c-1.5,0-2.8-1.2-2.8-2.8V44.7c0-1.5,1.2-2.7,2.7-2.7h25.3V84.1
			z"/>
		<path class="st0" d="M319.3,28h-21.1h-10.6c-1.9,0-3.4,1.5-3.4,3.4V42v56.2h14V42h18.5c1.4,0,2.6,1.2,2.6,2.6V56h14V42v0
			C333.3,34.2,327,28,319.3,28L319.3,28z"/>
	</g>
	<path class="st0" d="M727.1,55.9h-25.4v8.5h23.7c0.9,0,1.7,0.7,1.7,1.7v6.8h-16.9h0c-4.7,0-8.5,3.8-8.5,8.5v0v8.5V96
		c0,1.2,1,2.1,2.1,2.1h6.3h16.9h6.3c1.2,0,2.1-0.9,2.1-2.1v-6.3v-8.5v-8.5v-8.5v0C735.5,59.6,731.7,55.9,727.1,55.9L727.1,55.9z
		 M727.1,89.7h-14.8c-1.2,0-2.1-0.9-2.1-2.1v-4.8c0-0.9,0.7-1.6,1.6-1.6h15.3V89.7z"/>
	<path class="st0" d="M693.2,98.1h-4.1c-1.2,0-2.1-1-2.1-2.1v-4.1c0-1.2,1-2.1,2.1-2.1h4.1c1.2,0,2.1,1,2.1,2.1V96
		C695.3,97.2,694.4,98.1,693.2,98.1z"/>
	<path class="st0" d="M748.2,98.1H744c-1.2,0-2.1-1-2.1-2.1v-4.1c0-1.2,1-2.1,2.1-2.1h4.1c1.2,0,2.1,1,2.1,2.1V96
		C750.3,97.2,749.3,98.1,748.2,98.1z"/>
	<g>
		<path class="st1" d="M96.7,0H0v88.5c0,12.8,10.4,23.2,23.2,23.2h96.1V22.6C119.3,10.1,109.2,0,96.7,0z M110.2,102.7H23.3h0
			c-7.8,0-14-6.3-14-14V9.4h14V86c0,1.5,1.2,2.7,2.7,2.7h84.2V102.7z M110.2,79.6h-14V26.9c0-1.9-1.6-3.5-3.5-3.5H78.3v56.2h-14
			V23.4H46.4v56.2H33.6c-0.7,0-1.2-0.5-1.2-1.2v-55v-14h14h17.9h14h17.9c7.8,0,14,6.3,14,14V79.6z"/>
		<path class="st2" d="M96.2,9.4H78.3h-14H46.4h-14v14v55c0,0.7,0.5,1.2,1.2,1.2h12.9V23.4h17.9v56.2h14V23.4h14.4
			c1.9,0,3.5,1.6,3.5,3.5v52.6h14V23.4C110.2,15.7,104,9.4,96.2,9.4z"/>
		<path class="st2" d="M23.3,86V9.4h-14v79.3c0,7.8,6.3,14,14,14h0h86.9v-14H26C24.5,88.7,23.3,87.5,23.3,86z"/>
	</g>
</g>
</svg>
